<svg id="Layer_1" data-name="Layer 1" xmlns="http://www.w3.org/2000/svg" viewBox="0 0 1367.6 770.5"><defs><style>.cls-1,.cls-2{fill:#fff;}.cls-1{stroke:#000;stroke-miterlimit:10;}</style></defs><title>sample6</title><path class="cls-1" d="M1363.5,275.5" transform="translate(0.13 0.5)"/><path class="cls-2" d="M1045.66,117c201.16-19.38,319.84,46,319.84,46V-.5H778S844.49,136.36,1045.66,117Z" transform="translate(0.13 0.5)"/><path class="cls-2" d="M1263.43,696.77c-52,0-101.08,8.61-144.47,23.85-50.5-23.13-111-36.62-176.15-36.62-65.89,0-127.12,13.81-178,37.46C717.88,702.71,663.41,692,605.32,692c-55.64,0-108,9.85-153.51,27.16-49.07-21.25-107.07-33.54-169.22-33.54-71.2,0-137,16.12-190.08,43.37A398,398,0,0,0,0,699.82c0,.21,0,.43,0,.64a9.39,9.39,0,0,1,0,1.06A3.53,3.53,0,0,1,0,702a6.61,6.61,0,0,1,0,1.09,29.46,29.46,0,0,1,0,3.52,29.64,29.64,0,0,1,0,3.4,28.59,28.59,0,0,1,0,3.07,31.64,31.64,0,0,1,0,3.23,30.53,30.53,0,0,1-.09,4,30.46,30.46,0,0,1,0,4.87,30.76,30.76,0,0,1-.07,5.35,28.86,28.86,0,0,1,.07,4.46,29.66,29.66,0,0,1,0,3.77,31.29,31.29,0,0,1,0,3.36c.08,1.1.08,2.22.05,3.32a31.07,31.07,0,0,1,0,4c.05,1,.05,2.07,0,3.09a30.84,30.84,0,0,1,0,4.19c.05,1,.05,2.06,0,3.08H0c0,1,0,2,0,2.95s0,2,0,3,0,1.68,0,2.52c0,.62,0,1.24,0,1.86H1365q-.06-30.69,2.45-61.23A449.73,449.73,0,0,0,1263.43,696.77Z" transform="translate(0.13 0.5)"/></svg>